<?xml version="1.0" encoding="UTF-8"?>
<svg width="700pt" height="700pt" version="1.1" viewBox="0 0 700 700" xmlns="http://www.w3.org/2000/svg">
 <path d="m163.33 530.83h52.5c12.379 0 24.246-4.9141 33-13.668 8.75-8.75 13.668-20.621 13.668-32.996v-52.5c0-31.262 16.676-60.148 43.75-75.777 27.074-15.633 60.426-15.633 87.5 0 27.074 15.629 43.75 44.516 43.75 75.777v52.5c0 12.375 4.918 24.246 13.668 32.996 8.7539 8.7539 20.621 13.668 33 13.668h52.5c17.016 0 33.336-6.7578 45.371-18.793 12.035-12.035 18.793-28.355 18.793-45.371v-255.71c0.003907-20.934-10.215-40.551-27.367-52.547l-186.67-130.67c-10.789-7.5391-23.633-11.582-36.797-11.582s-26.008 4.043-36.797 11.582l-186.67 130.67c-17.152 11.996-27.371 31.613-27.367 52.547v255.71c0 17.016 6.7578 33.336 18.793 45.371 12.035 12.035 28.355 18.793 45.371 18.793z"/>
</svg>
