<?xml version="1.0" encoding="UTF-8"?>
<svg width="700pt" height="700pt" version="1.1" viewBox="0 0 700 700" xmlns="http://www.w3.org/2000/svg">
 <path d="m97.996 123.32h29.711c-4.4102-9.2539-6.8906-19.605-6.8906-30.531 0-19.598 7.9492-37.363 20.797-50.207 12.844-12.844 30.609-20.797 50.207-20.797 19.598 0 37.363 7.9492 50.207 20.797l0.46484 0.49609c12.566 12.812 20.332 30.367 20.332 49.711 0 10.926-2.4805 21.293-6.9062 30.551l346.08-0.019532c4.6367 0 8.3984 3.7617 8.3984 8.3984v296.55c0 4.6367-3.7617 8.3984-8.3984 8.3984h-29.711c4.4102 9.2539 6.8906 19.605 6.8906 30.531 0 19.598-7.9492 37.363-20.797 50.207-12.844 12.844-30.609 20.797-50.207 20.797-19.598 0-37.363-7.9492-50.207-20.797l-0.46484-0.49609c-12.566-12.812-20.332-30.367-20.332-49.711 0-10.926 2.4805-21.293 6.9062-30.551l-346.08 0.019531c-4.6367 0-8.3984-3.7617-8.3984-8.3984v-296.55c0-4.6367 3.7617-8.3984 8.3984-8.3984zm418.57 374.34v2.2695c0 4.6367-3.7617 8.3984-8.3984 8.3984s-8.3984-3.7617-8.3984-8.3984v-0.64063c-2.5586-0.28516-5.2578-0.79297-8.0703-1.5625-4.4727-1.2109-7.1172-5.8281-5.9062-10.297 1.2109-4.4727 5.8281-7.1172 10.297-5.9062 8.3672 2.2734 14.141 1.4492 17.039-0.69531l0.33594-0.29688c0.44141-0.37109 0.72266-0.70703 0.79297-0.94531l-0.03125-0.09375c-0.53516-1.5-3.0078-3.0938-7.8633-4.168-10.887-2.4062-17.348-8.0234-19.844-14.293l-0.22656-0.57031c-1.2695-3.5586-1.2812-7.2695-0.16406-10.793 1.0312-3.2461 3.0625-6.2617 5.9805-8.7188 2.0625-1.7383 4.6367-3.2148 7.6602-4.3008v-2.168c0-4.6367 3.7617-8.3984 8.3984-8.3984s8.3984 3.7617 8.3984 8.3984v0.54297c2.5664 0.28516 5.2656 0.79297 8.082 1.5625 4.4727 1.2109 7.1172 5.8281 5.9062 10.297-1.2109 4.4727-5.8281 7.1172-10.297 5.9062-4.0352-1.0977-7.4688-1.4766-10.266-1.3281-0.58984 0.13281-1.1953 0.19922-1.8242 0.19922h-0.13281c-2.2617 0.35156-3.9883 1.0977-5.1602 2.082-0.42969 0.36328-0.70703 0.71484-0.79297 0.98047l0.10547 0.29688c0.64844 1.4336 3.1172 2.9375 7.7852 3.9688 11.246 2.4922 17.758 8.3789 20.074 14.855 1.2695 3.5586 1.2812 7.2773 0.16406 10.793-1.0469 3.2812-3.0742 6.3164-5.9805 8.75l-0.64844 0.48828c-1.9453 1.5156-4.3008 2.8125-7.0195 3.7852zm34.309-63.859-0.054687-0.066406-0.027344-0.027344-0.38281-0.48438-0.074218-0.097656-0.23828-0.29297-0.097656-0.11328-0.14062-0.17188-0.69922-0.82031-0.027343-0.03125-0.24609-0.28516-0.15234-0.17188-0.09375-0.10547-0.25-0.27734-0.09375-0.097657-0.16016-0.17969-0.25-0.27734-0.027344-0.027343-0.23047-0.24609-0.21875-0.22656-0.039062-0.046875-0.25781-0.26562-0.15234-0.16016-0.11328-0.11328-0.25781-0.26562-0.26562-0.26562-0.26953-0.26562-0.011719-0.011719-0.25-0.24609-0.21094-0.20312-0.058594-0.054687-0.26953-0.25781-0.14453-0.14062-0.125-0.11328-0.27734-0.25781-0.074219-0.066406-0.20312-0.17969-0.27734-0.25v-0.007813l-0.28516-0.24609-0.20312-0.17969-0.074219-0.066406-0.28516-0.23828-0.14062-0.11719-0.14453-0.125-0.29297-0.23828-0.058594-0.054688-0.22656-0.18359-0.27734-0.22656-0.011719-0.011719-0.29297-0.23047-0.20312-0.16406-0.09375-0.066406-0.29688-0.23047-0.125-0.097656-0.16406-0.125-0.30469-0.22656-0.046875-0.039062-0.25-0.18359-0.27734-0.20312-0.027343-0.019531-0.30469-0.21875-0.19141-0.14062-0.11328-0.078125-0.30469-0.21094-0.11719-0.085937-0.18359-0.13281-0.3125-0.21094-0.039063-0.027344-0.26953-0.17969-0.27734-0.17969-0.039063-0.027344-0.3125-0.20312-0.19141-0.125-0.125-0.078125-0.31641-0.20312-0.11328-0.066406-0.20312-0.13281-0.31641-0.19141-0.03125-0.019531-0.29297-0.17969-0.64062-0.37891-0.19141-0.10547-0.14062-0.085938-0.32422-0.18359-0.10547-0.054687-0.55469-0.3125-0.019531-0.007813-0.3125-0.17188-0.26562-0.14062-0.066406-0.039062-1.6797-0.84766h-0.011719c-1.3828-0.66797-2.7969-1.2773-4.2461-1.8242l-0.09375-0.039063-1.0312-0.37891-0.11719-0.039062c-1.0469-0.37109-2.1094-0.69922-3.1797-1.0039l-0.21875-0.066406-0.35547-0.097656-0.066406-0.011719-0.64844-0.17188v-0.007813l-0.65625-0.16016-0.074219-0.019531-0.35547-0.085937-0.73437-0.16406-0.14453-0.027344-1.3242-0.26953v-0.007812l-0.36328-0.066407-0.30469-0.054687-0.066407-0.011719-0.37891-0.066406-0.22656-0.03125-0.14453-0.027344-0.37109-0.058594-0.16016-0.027343-0.21875-0.03125-0.37109-0.054688-0.085938-0.007812-0.29297-0.046876-0.37891-0.046874h-0.007812l-0.37109-0.046876-0.3125-0.039062-0.066406-0.007812-0.38281-0.039063-0.23047-0.027344-0.14453-0.011719-0.38281-0.039062-0.16016-0.011719-0.21875-0.019531-0.38281-0.027344-0.085938-0.007812-0.29687-0.027344-0.76563-0.046875-0.31641-0.011719-0.066406-0.007812-0.39062-0.019532-0.23828-0.007812-0.14453-0.007812-0.39062-0.011719h-0.16016l-0.22656-0.007813-0.39062-0.007812h-0.085938l-0.30469-0.007813h-0.79688l-0.30469 0.007813h-0.085937l-0.39062 0.007812-0.22656 0.007813h-0.16016l-0.39062 0.011719-0.14453 0.007812-0.23828 0.007812-0.39063 0.019532-0.066406 0.007812-0.31641 0.011719-0.76562 0.046875-0.29688 0.027344-0.085938 0.007812-0.38281 0.027344-0.21875 0.019531-0.16016 0.011719-0.38281 0.039062-0.14062 0.011719-0.23828 0.027344-0.38281 0.039063-0.066406 0.007812-0.3125 0.039062-0.36328 0.046876h-0.011719l-0.66797 0.09375-0.085938 0.007812-0.37109 0.054688-0.21875 0.03125-0.16016 0.027343-0.37109 0.058594-0.14062 0.027344-0.23047 0.03125-0.37891 0.066406-0.066406 0.011719-0.30469 0.054687-1.6875 0.34375-0.14453 0.027344-0.50781 0.11719-0.21875 0.046876-0.36328 0.085937-0.074219 0.019531-1.3711 0.35156-0.35547 0.097656-0.21875 0.066406c-1.0703 0.30469-2.1289 0.64062-3.1758 1.0039l-0.125 0.039062-1.0312 0.37891-0.09375 0.039063-0.25 0.09375-0.33594 0.13281-0.027344 0.011719-1.6602 0.67969-0.17188 0.078124c-1.1953 0.52344-2.3672 1.0859-3.5234 1.6914l-0.027344 0.019531-0.3125 0.16016-0.26953 0.15234-0.066406 0.03125-0.33594 0.18359-0.17188 0.097656-0.16406 0.085938-0.33203 0.19141-0.074219 0.039062-0.25781 0.15234-0.30469 0.17969-0.027344 0.011718-0.33203 0.19922-0.20312 0.125-0.11719 0.074219-0.33203 0.19922-0.10547 0.074219-0.21875 0.13281-0.31641 0.20312-0.019531 0.011719-0.30469 0.19141-0.24609 0.16016-0.074218 0.054688-0.31641 0.21094-0.15234 0.097656-0.16406 0.11328-0.31641 0.21875-0.054687 0.039063-0.25781 0.17969-0.62109 0.44141-0.18359 0.13281-0.125 0.09375-0.39844 0.29297-0.21875 0.16406-0.60156 0.46484-0.21094 0.16406-0.085938 0.074219-0.30469 0.23828-0.11719 0.09375-0.17969 0.14453c-0.89453 0.72266-1.7539 1.4688-2.5938 2.25l-0.17969 0.16016-0.097656 0.097656-0.27734 0.26563-1.6289 1.6055-0.25781 0.26953-0.046875 0.039062-0.21875 0.23828-0.22656 0.23047-0.039062 0.046875-0.76562 0.84766-0.066407 0.066407-0.18359 0.21875-1.2383 1.457-0.23828 0.29688-0.019531 0.019531-0.21875 0.27734-0.078125 0.097656-0.078125 0.09375-0.027344 0.039063c-7.2422 9.207-11.555 20.855-11.555 33.48 0 14.777 5.9062 28.176 15.457 37.938l0.41797 0.39062c9.8008 9.8008 23.367 15.875 38.328 15.875 14.969 0 28.527-6.0703 38.328-15.875 9.8008-9.8008 15.875-23.363 15.875-38.328 0-12.594-4.3047-24.203-11.504-33.41zm3.1367-20.797 0.10547 0.097656 0.11719 0.097657 0.11328 0.097656 0.69922 0.60938 0.11328 0.097656 0.085938 0.074219 0.03125 0.03125 0.11328 0.097656 0.11719 0.10547 0.11328 0.097656 0.11719 0.10547 0.11328 0.10547 0.027343 0.019531 0.085938 0.078125 0.11328 0.10547 0.11719 0.10547 0.22656 0.21094 0.085938 0.074219 0.027343 0.027344 0.56641 0.52734 0.03125 0.027344 0.29688 0.29688 0.22656 0.21094 0.085938 0.085937 0.027344 0.019531 0.10547 0.11328 0.22656 0.21094 0.10547 0.11328 0.11328 0.10547 0.03125 0.03125 0.074219 0.078125 0.11328 0.10547 0.10547 0.11328 0.11328 0.10547 0.10547 0.11328 0.09375 0.09375 0.011718 0.019531 0.11328 0.10547 0.42187 0.45312 0.039063 0.03125 0.066406 0.074219 0.11328 0.11328 0.21094 0.22656 0.097656 0.11328 0.097656 0.097656 0.007813 0.011719 0.21094 0.22656 0.10547 0.11719 0.10547 0.11328 0.097656 0.11328 0.046875 0.046875 0.058594 0.066407 0.10547 0.11328 0.097656 0.11719 0.10547 0.11328h32.523v-279.75h-348.88l-0.10547 0.11328-0.097656 0.11719-0.10547 0.11328-0.03125 0.03125-0.074218 0.078125-0.097657 0.11328-0.10547 0.11328-0.10547 0.11719-0.10547 0.11328-0.085937 0.09375-0.019532 0.019531-0.10547 0.11328-0.097657 0.11328-0.21094 0.22656-0.11328 0.11328-0.03125 0.039063-0.074218 0.066406-0.42188 0.45312-0.097657 0.09375-0.011718 0.011719-0.21094 0.22656-0.11328 0.10547-0.10547 0.11328-0.11328 0.10547-0.039063 0.046875-0.066406 0.066406-0.11328 0.10547-0.10547 0.11328-0.22656 0.21094-0.097656 0.10547-0.007813 0.007813-0.33984 0.31641-0.21875 0.21875-0.054687 0.046875-0.058594 0.058594-0.56641 0.52734-0.11328 0.097656-0.22656 0.21094-0.11719 0.10547-0.11328 0.10547-0.058593 0.054687-0.054688 0.046875-0.11328 0.10547-0.11719 0.10547-0.11328 0.097656-0.11719 0.10547-0.11328 0.097656-0.007812 0.007812-0.22656 0.19531-0.11719 0.097656-0.11328 0.10547-0.11719 0.097656-0.066406 0.058594-0.16406 0.13672-0.11719 0.10547-0.11328 0.097656-0.23437 0.19531h340.69c4.6367 0 8.3984 3.7617 8.3984 8.3984v249.21c0 4.6367-3.7617 8.3984-8.3984 8.3984h-24.32zm-353.82-289.76v2.2539c0 4.6367-3.7617 8.3984-8.3984 8.3984s-8.3984-3.7617-8.3984-8.3984v-0.62891c-2.5586-0.28516-5.25-0.79297-8.0625-1.5547-4.4727-1.2109-7.1172-5.8281-5.9062-10.297 1.2109-4.4727 5.8281-7.1172 10.297-5.9062 8.7109 2.3594 14.617 1.3633 17.383-0.96484 0.42969-0.36328 0.70703-0.71484 0.79297-0.98047l-0.039062-0.09375c-0.53516-1.4961-3.0039-3.082-7.8711-4.1602-11.238-2.4922-17.754-8.3789-20.066-14.863-1.2578-3.5898-1.2695-7.2891-0.16016-10.793 1.0312-3.2461 3.0625-6.2617 5.9805-8.7188 2.0625-1.7344 4.6289-3.2148 7.6523-4.293v-2.1836c0-4.6367 3.7617-8.3984 8.3984-8.3984s8.3984 3.7617 8.3984 8.3984v0.54297c2.5742 0.29297 5.2773 0.80078 8.1016 1.5664 4.4727 1.2109 7.1172 5.8281 5.9062 10.297-1.2109 4.4727-5.8281 7.1172-10.297 5.9062-4.0547-1.0977-7.5-1.4766-10.305-1.3281-0.58203 0.13281-1.1836 0.19922-1.8047 0.19922h-0.10547c-2.2695 0.35156-4.0078 1.0977-5.1797 2.082-0.42969 0.36328-0.70703 0.71484-0.79297 0.98047l0.019532 0.09375c0.54297 1.5078 3.0156 3.1016 7.8633 4.1719 11.25 2.4883 17.766 8.375 20.082 14.848 1.2617 3.5469 1.2969 7.2617 0.17188 10.793-1.0312 3.2461-3.0625 6.2617-5.9805 8.7188-2.0625 1.7383-4.6445 3.2227-7.6797 4.3047zm-51.023 3.0156 0.019531 0.03125 0.15625 0.1875 0.078126 0.097657 0.074218 0.097656 0.074219 0.09375v0.007813l1.25 1.4883 0.027344 0.039062c0.83984 0.96484 1.7188 1.9062 2.6328 2.8164 0.67578 0.67578 1.3711 1.3359 2.0781 1.9766l0.27734 0.25h0.007812l0.27734 0.25 0.21094 0.17969 0.35156 0.30469 0.14062 0.11719 0.14453 0.125 0.29297 0.23828 0.066407 0.054687 0.21875 0.18359 0.28516 0.22656 0.007812 0.011718 0.29688 0.23047 0.20312 0.16016 0.085938 0.074219 0.29688 0.23047 0.125 0.09375 0.16406 0.13281 0.30469 0.22656 0.054687 0.039062 0.24609 0.18359 0.27734 0.19922 0.027344 0.027343 0.30469 0.21875 0.19922 0.14063 0.10547 0.078124 0.30469 0.21094 0.125 0.085938 0.80078 0.55078 0.27734 0.17969 0.039063 0.027344 0.3125 0.20312 0.19922 0.125 0.11719 0.078125 0.31641 0.20312 0.11328 0.066406 0.52344 0.32422 0.03125 0.011719 0.93359 0.5625 0.19141 0.10547 1.125 0.63672 0.019531 0.007813c3.4531 1.8789 7.1445 3.3945 11.008 4.4844l0.21875 0.066406 0.35547 0.097656 0.066407 0.011719 0.64844 0.17188v0.007812l0.65625 0.16016 0.074219 0.019531 0.36328 0.085938 0.21875 0.046874 0.50781 0.11719 0.14453 0.027344 1.3242 0.26953v0.007813l0.36328 0.066406 0.30469 0.054687 0.066406 0.011719 0.37891 0.066406 0.22656 0.03125 0.14453 0.027344 0.37109 0.058594 0.16016 0.027344 0.21875 0.03125 0.37109 0.054687 0.085938 0.007813 0.29297 0.046874 0.37891 0.046876h0.007812l0.37109 0.046874 0.3125 0.039063 0.066406 0.007813 0.38281 0.039062 0.23047 0.027344 0.14453 0.011718 0.38281 0.039063 0.16016 0.011719 0.21875 0.019531 0.38281 0.027344 0.085937 0.007812 0.29688 0.027344 0.76562 0.046875 0.31641 0.011719 0.066406 0.007812 0.39062 0.019531 0.23828 0.007813 0.14453 0.007813 0.39063 0.011718h0.16016l0.22656 0.007813 0.39062 0.007812h0.085938l0.30469 0.007813h0.79688l0.30469-0.007813h0.085937l0.39062-0.007812 0.22656-0.007813h0.16016l0.39062-0.011718 0.14453-0.007813 0.23828-0.007813 0.39062-0.019531 0.066407-0.007812 0.31641-0.011719 0.76562-0.046875 0.29688-0.027344 0.085937-0.007812 0.38281-0.027344 0.21875-0.019531 0.16016-0.011719 0.38281-0.039063 0.14062-0.011718 0.23828-0.027344 0.38281-0.039062 0.066407-0.007813 0.3125-0.039063 0.36328-0.046874h0.011719l0.66797-0.09375 0.085937-0.007813 0.37109-0.054687 0.21875-0.03125 0.16016-0.027344 0.37109-0.058594 0.14062-0.027344 0.23047-0.03125 0.37891-0.066406 0.066406-0.011719 0.30469-0.054687 1.6875-0.34375 0.14453-0.027344 0.73438-0.16406 0.35547-0.085938 0.074218-0.019531 1.3711-0.35156 0.35547-0.097656 0.21875-0.066406c1.0703-0.30469 2.1289-0.64062 3.1758-1.0039l0.125-0.039063 1.0312-0.37891 0.09375-0.039063 0.25-0.09375 0.33594-0.13281 0.027343-0.011719 1.6602-0.67969 0.17187-0.078126c1.1953-0.52344 2.3672-1.0859 3.5234-1.6914l0.027344-0.019531 0.3125-0.16016 0.26953-0.15234 0.066406-0.03125 0.33594-0.18359 0.17188-0.097656 0.16406-0.085937 0.33203-0.19141 0.074218-0.039062 0.25781-0.15234 0.30469-0.17969 0.027344-0.011719 0.33203-0.19922 0.20312-0.125 0.11719-0.074219 0.33203-0.19922 0.10547-0.074218 0.21875-0.13281 0.31641-0.20312 0.019531-0.011718 0.30469-0.19141 0.24609-0.16016 0.074219-0.054687 0.31641-0.21094 0.15234-0.097656 0.16406-0.11328 0.31641-0.21875 0.054688-0.039062 0.25781-0.17969 0.62109-0.44141 0.18359-0.13281 0.125-0.09375 0.39844-0.29297 0.21875-0.16406 0.60156-0.46484 0.21094-0.16406 0.085937-0.074218 0.30469-0.23828 0.11719-0.09375 0.17969-0.14453c0.89453-0.72266 1.7539-1.4688 2.5938-2.25l0.17969-0.16016 0.097657-0.097657 0.27734-0.26562 1.6289-1.6055 0.25781-0.26953 0.046875-0.039063 0.21875-0.23828 0.22656-0.23047 0.039062-0.046875 0.76562-0.84766 0.066406-0.066406 0.18359-0.21875 1.2383-1.457 0.23828-0.29688 0.019531-0.019531 0.21875-0.27734 0.078125-0.097656 0.078125-0.09375 0.027344-0.039062c7.2422-9.207 11.555-20.855 11.555-33.48 0-14.777-5.9062-28.176-15.457-37.938l-0.41797-0.39062c-9.8008-9.8008-23.367-15.875-38.328-15.875-14.969 0-28.527 6.0703-38.328 15.875-9.8008 9.8008-15.875 23.363-15.875 38.328 0 12.625 4.3242 24.254 11.562 33.469zm-3.1953 20.734-0.10547-0.097657-0.11719-0.097656-0.11328-0.097656-0.69922-0.60938-0.11328-0.097656-0.085937-0.074219-0.03125-0.03125-0.11328-0.097657-0.11719-0.10547-0.11328-0.097656-0.11719-0.10547-0.11328-0.10547-0.027344-0.019531-0.085937-0.078125-0.11328-0.10547-0.11719-0.10547-0.22656-0.21094-0.085937-0.074219-0.027344-0.027344-0.56641-0.52734-0.03125-0.027343-0.29688-0.29688-0.22656-0.21094-0.085938-0.085937-0.027344-0.019531-0.10547-0.11328-0.22656-0.21094-0.10547-0.11328-0.11328-0.10547-0.03125-0.03125-0.074219-0.078125-0.11328-0.10547-0.10547-0.11328-0.11328-0.10547-0.10547-0.11328-0.09375-0.09375-0.011718-0.019532-0.11328-0.10547-0.42188-0.45312-0.039062-0.03125-0.066407-0.074219-0.11328-0.11328-0.21094-0.22656-0.097656-0.11328-0.097657-0.097656-0.007812-0.011719-0.21094-0.22656-0.10547-0.11719-0.10547-0.11328-0.097656-0.11328-0.046876-0.046876-0.058593-0.066406-0.10547-0.11328-0.097656-0.11719-0.10547-0.11328h-32.523v279.75h348.88l0.10547-0.11328 0.097657-0.11719 0.10547-0.11328 0.03125-0.03125 0.074218-0.078124 0.097656-0.11328 0.10547-0.11328 0.10547-0.11719 0.10547-0.11328 0.085937-0.09375 0.019532-0.019531 0.10547-0.11328 0.097656-0.11328 0.21094-0.22656 0.11328-0.11328 0.03125-0.039063 0.074219-0.066406 0.42188-0.45312 0.097656-0.09375 0.011719-0.011719 0.21094-0.22656 0.11328-0.10547 0.10547-0.11328 0.11328-0.10547 0.039062-0.046875 0.066407-0.066406 0.11328-0.10547 0.10547-0.11328 0.22656-0.21094 0.097656-0.10547 0.007813-0.007813 0.33984-0.31641 0.21875-0.21875 0.054688-0.046875 0.058594-0.058594 0.56641-0.52734 0.11328-0.097656 0.22656-0.21094 0.11719-0.10547 0.11328-0.10547 0.058594-0.054687 0.054688-0.046876 0.11328-0.10547 0.11719-0.10547 0.11328-0.097656 0.11719-0.10547 0.11328-0.097656 0.007813-0.007813 0.22656-0.19531 0.11719-0.097657 0.11328-0.10547 0.11719-0.097656 0.066406-0.058594 0.16406-0.13672 0.11719-0.10547 0.11328-0.097656 0.23438-0.19531h-340.69c-4.6367 0-8.3984-3.7617-8.3984-8.3984v-249.21c0-4.6367 3.7617-8.3984 8.3984-8.3984h24.32zm212.41 181.48v8.5312c0 4.6367-3.7617 8.3984-8.3984 8.3984-4.6367 0-8.3984-3.7617-8.3984-8.3984v-6.8789c-5.7266-0.21875-11.973-1.1523-18.664-2.9688-4.4727-1.2109-7.1172-5.8281-5.9062-10.297 1.2109-4.4727 5.8281-7.1172 10.297-5.9062 17.395 4.7227 29.711 2.2695 35.895-2.9375 1.6797-1.4102 2.8047-2.9883 3.3086-4.5703 0.39062-1.2383 0.39062-2.5742-0.011719-3.8906l-0.09375-0.24609c-1.5938-4.4766-7.3945-8.8281-18.23-11.23-17.219-3.8242-27.066-12.488-30.434-21.961-1.7383-4.8867-1.7734-9.9805-0.23828-14.801 1.4492-4.5586 4.3398-8.8086 8.4922-12.309 3.9609-3.332 9.207-6.0391 15.582-7.6641v-8.3477c0-4.6367 3.7617-8.3984 8.3984-8.3984s8.3984 3.7617 8.3984 8.3984v6.6953c5.7344 0.21875 11.973 1.1562 18.672 2.9766 4.4727 1.2109 7.1172 5.8281 5.9062 10.297-1.2109 4.4727-5.8281 7.1172-10.297 5.9062-8.0742-2.1953-15.055-2.8438-20.836-2.3867-0.59375 0.13281-1.2109 0.20312-1.8438 0.20312h-0.11719c-5.707 0.73438-10.113 2.5977-13.098 5.1133-1.6797 1.4102-2.8047 2.9883-3.3086 4.5703-0.41797 1.3242-0.39062 2.7656 0.10547 4.168 1.5859 4.457 7.3945 8.8047 18.223 11.203 17.23 3.8242 27.07 12.48 30.438 21.918l0.16016 0.48828c1.582 4.7422 1.5742 9.6641 0.078125 14.348-1.4492 4.5586-4.3398 8.8086-8.4922 12.309-3.9609 3.332-9.2148 6.0391-15.59 7.6641zm147.54-77.062c7.8984 0 15.039 3.207 20.207 8.375l0.50391 0.55078c4.875 5.1406 7.8711 12.07 7.8711 19.664 0 7.8633-3.207 15.016-8.3945 20.191-5.1445 5.1875-12.289 8.3945-20.188 8.3945-7.8633 0-15.016-3.207-20.191-8.3945-5.1875-5.1445-8.3945-12.301-8.3945-20.191s3.207-15.047 8.375-20.215l0.55078-0.50391c5.1406-4.875 12.07-7.8711 19.664-7.8711zm8.3281 20.254c-2.125-2.125-5.0781-3.4531-8.3281-3.4531-3.1016 0-5.918 1.1758-7.9961 3.0938l-0.33594 0.35547c-2.125 2.125-3.4531 5.0781-3.4531 8.332 0 3.2539 1.3281 6.2109 3.4531 8.332 2.1016 2.1445 5.0586 3.4531 8.332 3.4531 3.2461 0 6.2031-1.3281 8.3281-3.4531 2.1445-2.1094 3.4531-5.0586 3.4531-8.332 0-3.1094-1.1758-5.918-3.1016-8.0039l-0.35156-0.33203zm-320.19-20.254c7.8633 0 15.016 3.207 20.191 8.3945 5.1875 5.1445 8.3945 12.301 8.3945 20.191s-3.207 15.047-8.375 20.215l-0.55078 0.50391c-5.1406 4.875-12.07 7.8711-19.664 7.8711-7.8984 0-15.039-3.207-20.207-8.375l-0.50391-0.55078c-4.875-5.1406-7.8711-12.07-7.8711-19.664 0-7.8633 3.207-15.016 8.3945-20.191 5.1445-5.1875 12.289-8.3945 20.188-8.3945zm8.332 20.234c-2.1016-2.125-5.0586-3.4336-8.332-3.4336-3.2461 0-6.2031 1.3281-8.3281 3.4531-2.1445 2.1094-3.4531 5.0586-3.4531 8.332 0 3.1094 1.1758 5.918 3.1016 8.0039l0.35156 0.33203c2.125 2.125 5.0781 3.4531 8.3281 3.4531 3.1016 0 5.918-1.1758 7.9961-3.0938l0.33594-0.35547c2.125-2.125 3.4531-5.0781 3.4531-8.332s-1.3281-6.2109-3.4531-8.3555zm147.6-83.582c25.367 0 48.344 10.297 64.977 26.926 16.66 16.668 26.961 39.645 26.961 65.012s-10.297 48.344-26.926 64.977c-16.668 16.66-39.645 26.961-65.012 26.961-25.367 0-48.344-10.297-64.977-26.926-16.66-16.668-26.961-39.645-26.961-65.012s10.297-48.344 26.926-64.977c16.668-16.66 39.645-26.961 65.012-26.961zm53.145 38.793c-13.594-13.586-32.383-21.992-53.145-21.992-20.762 0-39.555 8.4062-53.145 21.992-13.586 13.594-21.992 32.383-21.992 53.145s8.4062 39.555 21.992 53.145c13.594 13.586 32.383 21.992 53.145 21.992 20.762 0 39.555-8.4062 53.145-21.992 13.586-13.594 21.992-32.383 21.992-53.145s-8.4062-39.555-21.992-53.145zm-211.84-63.059h-61.242v232.41h439.87v-232.41z"/>
</svg>
